# xmcd CD database file
#
# Track frame offsets:
#	150
#	57578
#	68960
#	104823
#	173510
#	215526
#
# Disc length: 3650 seconds
#
# Revision: 0
# Processed by: cddbd v1.5.2PL0 Copyright (c) Steve Scherf et al.
# Submitted via: CDex 1.70beta2
#
DISCID=5a0e4006
DTITLE=Tyshawn Sorey - Koan
DYEAR=2009
DGENRE=Jazz
TTITLE0=Awakening
TTITLE1=Only One Sky
TTITLE2=Correct Truth
TTITLE3=Nocturnal
TTITLE4=Two Guiters
TTITLE5=Embed
EXTD=YEAR: 2009
EXTT0=
EXTT1=
EXTT2=
EXTT3=
EXTT4=
EXTT5=
PLAYORDER=
